<?xml version="1.0" encoding="UTF-8"?>
<svg width="32" height="32" viewBox="0 0 32 32" xmlns="http://www.w3.org/2000/svg">
  <g fill="none">
    <circle cx="16" cy="16" r="16" fill="#2775CA"/>
    <path d="M20.022 18.124c0-2.124-1.28-2.852-3.84-3.156-1.828-.243-2.193-.728-2.193-1.578 0-.85.61-1.396 1.828-1.396 1.097 0 1.707.364 2.011 1.275a.458.458 0 00.447.364h.932a.458.458 0 00.447-.607c-.405-1.518-1.707-2.489-3.359-2.61v-1.518a.458.458 0 00-.446-.486h-.852a.458.458 0 00-.447.486v1.457c-1.95.122-3.238 1.336-3.238 2.975 0 2.002 1.218 2.73 3.777 3.035 1.707.242 2.255.668 2.255 1.639 0 .97-.853 1.639-2.011 1.639-1.584 0-2.133-.667-2.316-1.578-.061-.303-.243-.485-.447-.485h-1.036a.458.458 0 00-.447.607c.285 1.457 1.34 2.61 3.48 2.852v1.457c0 .243.203.486.447.486h.852a.458.458 0 00.447-.486V21.16c1.95-.182 3.298-1.396 3.298-3.035z" fill="#FFF"/>
    <path d="M12.92 24.729c-4.81-1.796-7.327-7.084-5.62-11.773 1.097-3.094 3.72-5.322 6.898-5.93a.972.972 0 00.69-.849v-.97a.405.405 0 00-.487-.424C8.895 5.812 4.876 10.57 4.957 16.23c0 6.112 4.993 10.87 10.923 10.87.243 0 .447-.182.447-.425v-.97a.413.413 0 00-.284-.424c-1.097-.182-2.133-.667-3.116-1.396M19.08 4.842c4.81 1.7 7.408 6.927 5.782 11.677-1.036 3.094-3.72 5.383-6.898 5.992a.972.972 0 00-.69.849v.97c0 .242.244.424.488.424 5.538-1.032 9.516-5.749 9.475-11.408 0-6.113-4.993-10.87-10.923-10.87a.458.458 0 00-.447.424v.97a.413.413 0 00.284.424c1.097.182 2.133.607 3.116 1.336" fill="#FFF"/>
  </g>
</svg>
