<?xml version="1.0" encoding="UTF-8"?>
<svg width="32" height="32" viewBox="0 0 32 32" fill="none" xmlns="http://www.w3.org/2000/svg">
  <path d="M16 0C7.164 0 0 7.164 0 16s7.164 16 16 16 16-7.164 16-16S24.836 0 16 0z" fill="#008C73"/>
  <path d="M16 6.4c-5.302 0-9.6 4.298-9.6 9.6s4.298 9.6 9.6 9.6 9.6-4.298 9.6-9.6-4.298-9.6-9.6-9.6zm0 17.4c-4.301 0-7.8-3.499-7.8-7.8s3.499-7.8 7.8-7.8 7.8 3.499 7.8 7.8-3.499 7.8-7.8 7.8z" fill="#fff"/>
  <path d="M16 10.4c-3.088 0-5.6 2.512-5.6 5.6s2.512 5.6 5.6 5.6 5.6-2.512 5.6-5.6-2.512-5.6-5.6-5.6zm0 9.4c-2.099 0-3.8-1.701-3.8-3.8s1.701-3.8 3.8-3.8 3.8 1.701 3.8 3.8-1.701 3.8-3.8 3.8z" fill="#fff"/>
</svg>
