<?xml version="1.0" encoding="UTF-8"?>
<svg xmlns="http://www.w3.org/2000/svg" viewBox="0 0 404 420.2" width="32" height="32">
  <path fill="#E2761B" stroke="#E2761B" stroke-linecap="round" stroke-linejoin="round" d="m374.79 20.108-140.2 103.99 26.1-61.31z"/>
  <path fill="#E4761B" stroke="#E4761B" stroke-linecap="round" stroke-linejoin="round" d="m29.408 20.108 139.1 104.89-24.9-62.21zm306.292 243.892-41.9 64.1 89.7 24.7 25.7-87.3zm-347.392.1 25.6 87.3 89.7-24.7-41.9-64.1z"/>
  <path fill="#E4761B" stroke="#E4761B" stroke-linecap="round" stroke-linejoin="round" d="m99.208 180.208 22.3 34.2-79.9-2.4zm205.8 0 58.1 31.8-79.9 2.4zm-184.4 148.7 48.3-23.5-41.6-32.4zm110.9 0-6.7-55.9-41.6 32.4z"/>
  <path fill="#D7C1B3" stroke="#D7C1B3" stroke-linecap="round" stroke-linejoin="round" d="m231.508 328.908-48.3-23.5 3.9 31.5-.4 13.3zm-58.9 0 44.8 21.3-.4-13.3 3.9-31.5z"/>
  <path fill="#233447" stroke="#233447" stroke-linecap="round" stroke-linejoin="round" d="m173.708 247.708-40.6-11.9 28.6-13.1zm56.8 0 12-25-28.6-13.1z"/>
  <path fill="#CD6116" stroke="#CD6116" stroke-linecap="round" stroke-linejoin="round" d="m121.508 328.908 7.1-57.5-49 .1zm154.1-57.5 7.1 57.5 41.9-57.4zm35.9-91.2-79.9 2.4 7.4 40.9 12-25 28.6 13.1zm-205.6 31.4 28.6-13.1 12 25 7.4-40.9-79.9-2.4z"/>
  <path fill="#E4751F" stroke="#E4751F" stroke-linecap="round" stroke-linejoin="round" d="m79.508 211.708 42.9 83.6-3.1-41.7zm205.2 41.9-3.1 41.7 42.9-83.6zm-163.2-39.5-7.4 40.9 9.3 48.1 2.1-63.3zm120.2 0-3.9 25.7 2.1 63.3 9.3-48.1z"/>
  <path fill="#F6851B" stroke="#F6851B" stroke-linecap="round" stroke-linejoin="round" d="m242.508 247.708-9.3 48.1 6.7 55.9 1.5-73.7zm-80.8 0-1.1 30.3 1.5 73.7 6.7-55.9z"/>
  <path fill="#C0AD9E" stroke="#C0AD9E" stroke-linecap="round" stroke-linejoin="round" d="m183.108 350.208.4-13.3-3.5-3h-37.7l-3.5 3 .4 13.3-44.8-21.3 15.7 12.9 31.7 21.9h38.7l31.7-21.9 15.7-12.9z"/>
  <path fill="#161616" stroke="#161616" stroke-linecap="round" stroke-linejoin="round" d="m179.908 305.408-3.9-31.5h-17.6l-3.9 31.5-3.5 3h37.7z"/>
  <path fill="#763D16" stroke="#763D16" stroke-linecap="round" stroke-linejoin="round" d="m381.908 175.208-5.7 13.6-15.2-46.1zm-353.5 13.6-5.7-13.6 20.9-32.5zm48.8 22.9 22.3-46.1-4.8-40.6zm227.5-46.1 22.3 46.1 4.8-40.6z"/>
  <path fill="#F6851B" stroke="#F6851B" stroke-linecap="round" stroke-linejoin="round" d="m79.508 211.708 4.8-68.2-41.1 20zm281.5-68.2 4.8 68.2 36.3-48.2zm-84.8 4.5 2.1-33.6 9.5-50.5h-87.2l9.5 50.5 2.1 33.6 1.1 16.8.1 41.7h52.6l.1-41.7z"/>
</svg>
