<?xml version="1.0" encoding="UTF-8"?>
<svg width="32" height="32" viewBox="0 0 32 32" fill="none" xmlns="http://www.w3.org/2000/svg">
  <path d="M16 0C7.164 0 0 7.164 0 16s7.164 16 16 16 16-7.164 16-16S24.836 0 16 0z" fill="#3B99FC"/>
  <path d="M10.8 11.2c2.867-2.8 7.533-2.8 10.4 0l.347.338c.143.14.143.367 0 .507l-1.187 1.16c-.072.07-.188.07-.26 0l-.477-.466c-2-1.957-5.246-1.957-7.246 0l-.51.499c-.072.07-.189.07-.26 0l-1.187-1.16c-.144-.14-.144-.367 0-.507l.38-.371zm12.853 2.4l1.056 1.033c.144.14.144.367 0 .507l-4.766 4.66c-.144.14-.377.14-.52 0l-3.38-3.307c-.036-.035-.095-.035-.131 0l-3.38 3.307c-.144.14-.377.14-.52 0l-4.767-4.66c-.143-.14-.143-.367 0-.507l1.056-1.033c.144-.14.377-.14.52 0l3.38 3.307c.036.035.095.035.132 0l3.38-3.307c.143-.14.376-.14.52 0l3.38 3.307c.036.035.095.035.131 0l3.38-3.307c.144-.14.377-.14.52 0z" fill="#fff"/>
</svg>
